HIERARCHY
ROOT Hips
{
	OFFSET 0.000000 0.000000 0.000000
	CHANNELS 6 Xposition Yposition Zposition Zrotation Yrotation Xrotation 
	JOINT LHipJoint
	{
		OFFSET 0.000000 0.000000 0.000000
		CHANNELS 3 Zrotation Yrotation Xrotation
		JOINT LeftUpLeg
		{
			OFFSET 1.363060 -1.794630 0.839290
			CHANNELS 3 Zrotation Yrotation Xrotation
			JOINT LeftLeg
			{
				OFFSET 2.448110 -6.726130 0.000000
				CHANNELS 3 Zrotation Yrotation Xrotation
				JOINT LeftFoot
				{
					OFFSET 2.562200 -7.039590 0.000000
					CHANNELS 3 Zrotation Yrotation Xrotation
					JOINT LeftToeBase
					{
						OFFSET 0.157640 -0.433110 2.322550
						CHANNELS 3 Zrotation Yrotation Xrotation
						End Site
						{
							OFFSET 0.000000 0.000000 0.000000
						}
					}
				}
			}
		}
	}
	JOINT RHipJoint
	{
		OFFSET 0.000000 0.000000 0.000000
		CHANNELS 3 Zrotation Yrotation Xrotation
		JOINT RightUpLeg
		{
			OFFSET -1.305520 -1.794630 0.839290
			CHANNELS 3 Zrotation Yrotation Xrotation
			JOINT RightLeg
			{
				OFFSET -2.542530 -6.985550 0.000000
				CHANNELS 3 Zrotation Yrotation Xrotation
				JOINT RightFoot
				{
					OFFSET -2.568260 -7.056230 0.000000
					CHANNELS 3 Zrotation Yrotation Xrotation
					JOINT RightToeBase
					{
						OFFSET -0.164730 -0.452590 2.363150
						CHANNELS 3 Zrotation Yrotation Xrotation
						End Site
						{
							OFFSET 0.000000 0.000000 0.000000
						}
					}
				}
			}
		}
	}
}
MOTION
Frames: 22
Frame Time: 0.008333
24.676602 15.365824 1.883848 142.807754 -86.856876 -114.893401 -7.747474 -0.937367 7.330979 -3.994077 -15.499338 -77.355950 -0.319943 2.469929 49.283572 2.086092 7.094613 -10.114462 0.253699 0.000000 -26.931600 10.835543 -4.792081 0.636467 5.503859 -7.896682 8.293251 2.516441 0.780707 1.524251 0.497625 4.942711 -0.610611 0.311599 -0.000000 -78.502701
24.408257 15.383502 1.879908 140.742952 -86.863688 -112.566044 -7.641601 -0.910049 7.417797 -3.966420 -16.019738 -77.131893 -0.191121 2.456099 50.409271 2.301336 7.938377 -10.927412 0.136000 -0.000000 -25.753800 11.016958 -4.987384 0.747266 5.195178 -7.746042 7.422445 2.322533 0.426337 3.448658 0.483533 4.578403 2.378399 0.449400 -0.000000 -83.008900
24.138802 15.408389 1.878479 139.076746 -86.891040 -110.671574 -7.568215 -0.870966 7.490195 -3.995948 -16.434152 -76.730008 -0.098573 2.431953 51.274939 2.487218 8.642275 -11.740885 -0.006600 0.000000 -24.644800 11.178688 -5.173184 0.841050 4.949129 -7.642216 6.351523 2.088457 0.052595 5.714848 0.433979 4.208412 5.691206 0.602400 -0.000000 -86.927299
23.869679 15.440506 1.878905 137.484399 -86.930547 -108.909644 -7.515609 -0.815609 7.540958 -4.113202 -16.756259 -76.115423 -0.043593 2.398419 51.889683 2.639230 9.193208 -12.543830 -0.168200 -0.000000 -23.619799 11.343627 -5.332426 0.904498 4.717018 -7.658586 5.070432 1.809256 -0.326597 8.364864 0.343384 3.895290 9.237322 0.783900 -0.000000 -89.856400
23.602112 15.479557 1.881305 135.962321 -86.980332 -107.284038 -7.485913 -0.747358 7.563365 -4.315047 -16.979108 -75.283313 -0.023596 2.358267 52.278186 2.754184 9.582416 -13.327823 -0.341700 0.000000 -22.700900 11.509648 -5.446103 0.936985 4.505292 -7.781035 3.591744 1.487592 -0.689717 11.399766 0.202937 3.616197 12.879693 0.987700 0.000000 -91.419400
23.337472 15.525336 1.884607 134.288312 -87.023781 -105.580861 -7.463637 -0.660055 7.553915 -4.625227 -17.121819 -74.220753 -0.037825 2.310989 52.450777 2.835542 9.829346 -14.082564 -0.519600 -0.000000 -21.906500 11.692346 -5.491977 0.938165 4.283457 -8.004598 1.932642 1.133386 -1.015057 14.806844 0.012017 3.341721 16.430386 1.192200 0.000000 -91.361100
23.076301 15.577353 1.888879 132.587981 -87.062164 -103.919989 -7.453094 -0.559773 7.510548 -5.020880 -17.174817 -72.949701 -0.081118 2.258353 52.434532 2.885958 9.947758 -14.803026 -0.695600 -0.000000 -21.256600 11.875041 -5.458708 0.916366 4.087678 -8.254239 0.126597 0.770148 -1.287145 18.539464 -0.223816 2.956919 19.673124 1.325400 -0.000000 -89.583200
22.819347 15.635222 1.893212 130.763605 -87.082716 -102.200699 -7.443779 -0.443081 7.435014 -5.505189 -17.154397 -71.476336 -0.150511 2.199047 52.238004 2.913364 9.973399 -15.484450 -0.865200 0.000000 -20.760700 12.059731 -5.342438 0.872707 3.907813 -8.506751 -1.800271 0.423079 -1.504468 22.548120 -0.487714 2.376281 22.393785 1.310900 0.000000 -86.258900
22.566643 15.698487 1.897313 128.877773 -87.083714 -100.477267 -7.436118 -0.313244 7.331087 -6.056367 -17.064250 -69.824996 -0.241150 2.132781 51.875132 2.924639 9.936119 -16.126829 -1.026400 -0.000000 -20.421200 12.235262 -5.153860 0.809340 3.760120 -8.731230 -3.825117 0.113774 -1.679437 26.764904 -0.761089 1.506713 24.420592 1.072200 -0.000000 -81.812500
22.318436 15.766788 1.900899 126.979624 -87.062204 -98.789495 -7.429777 -0.172847 7.204294 -6.654175 -16.911966 -68.019805 -0.348929 2.058548 51.351624 2.926918 9.866305 -16.731491 -1.179099 0.000000 -20.231700 12.395105 -4.910776 0.727768 3.651855 -8.914411 -5.932672 -0.148769 -1.832281 31.110220 -1.028852 0.299896 25.652102 0.574300 0.000001 -76.839200
22.074038 15.839743 1.903617 125.124010 -87.013796 -97.178878 -7.423587 -0.023694 7.061329 -7.281832 -16.708550 -66.083753 -0.470622 1.974639 50.664818 2.926837 9.791848 -17.299426 -1.324200 -0.000000 -20.177600 12.537416 -4.631826 0.631294 3.581709 -9.050818 -8.113301 -0.367878 -1.982484 35.497270 -1.282588 -1.233459 26.060016 -0.158800 -0.000000 -71.921200
21.832607 15.916913 1.905841 123.481050 -86.949518 -95.796140 -7.425743 0.126241 6.909113 -7.902385 -16.449262 -64.055905 -0.602074 1.880082 49.818287 2.926922 9.722052 -17.833026 -1.462400 0.000000 -20.240300 12.651990 -4.337436 0.528992 3.575743 -9.118736 -10.364263 -0.552431 -2.143799 39.836165 -1.519543 -3.040141 25.669827 -1.057000 -0.000000 -67.456399
21.593345 15.998007 1.907018 122.071985 -86.858935 -94.650178 -7.429702 0.278762 6.753812 -8.517761 -16.152127 -61.946758 -0.742723 1.771834 48.792908 2.931279 9.674295 -18.328000 -1.594601 0.000000 -20.392400 12.746969 -4.036156 0.426529 3.609885 -9.125157 -12.680201 -0.714445 -2.321930 44.043863 -1.738675 -5.000739 24.539384 -2.000100 -0.000000 -63.633700
21.355476 16.082561 1.907542 121.051565 -86.753045 -93.880496 -7.441261 0.427496 6.600456 -9.102248 -15.811783 -59.785469 -0.890176 1.648205 47.583771 2.938719 9.642579 -18.780918 -1.719701 0.000000 -20.607400 12.816437 -3.738822 0.334866 3.699393 -9.052832 -15.059243 -0.861625 -2.516801 48.040300 -1.939461 -6.992764 22.748245 -2.867600 0.000000 -60.399400
21.117888 16.170059 1.907517 120.510344 -86.634508 -93.564161 -7.460712 0.570705 6.452740 -9.648056 -15.430436 -57.583857 -1.043426 1.506682 46.177852 2.947577 9.620456 -19.182664 -1.835200 0.000000 -20.857000 12.860831 -3.450436 0.263627 3.838121 -8.893374 -17.493279 -0.998180 -2.723408 51.753069 -2.120252 -8.883539 20.399233 -3.548100 -0.000000 -57.608300
20.879580 16.259933 1.907215 120.536784 -86.509268 -93.782266 -7.489665 0.705621 6.311695 -10.145636 -15.004967 -55.350579 -1.201198 1.345261 44.565931 2.954370 9.595293 -19.521363 -1.937201 -0.000000 -21.115799 12.878596 -3.174119 0.221602 4.023871 -8.634691 -19.970257 -1.123771 -2.934464 55.119007 -2.278160 -10.556688 17.619162 -3.965100 0.000000 -55.084800
20.640118 16.351579 1.906737 121.174807 -86.377977 -94.579457 -7.528070 0.831537 6.176372 -10.594168 -14.534550 -53.078414 -1.362330 1.162030 42.737029 2.955510 9.557492 -19.780498 -2.021000 -0.000000 -21.363000 12.870173 -2.910666 0.214487 4.242778 -8.272193 -22.470237 -1.234900 -3.142473 58.091758 -2.408154 -11.913673 14.547961 -4.084501 0.000000 -52.590700
20.398790 16.444022 1.906849 122.499932 -86.254191 -96.028109 -7.582708 0.944021 6.044804 -10.974879 -14.008099 -50.773861 -1.523388 0.956724 40.698447 2.945558 9.490339 -19.945559 -2.080700 -0.000001 -21.590100 12.829300 -2.663692 0.248117 4.503980 -7.792665 -24.975739 -1.326294 -3.339661 60.638523 -2.506536 -12.903296 11.354091 -3.930300 0.000001 -50.022800
20.155293 16.536438 1.907730 124.505142 -86.136575 -98.132765 -7.654689 1.042806 5.912550 -11.287903 -13.424784 -48.417955 -1.681488 0.729440 38.451800 2.921416 9.392068 -19.998451 -2.112200 0.000000 -21.794800 12.756376 -2.432714 0.321171 4.792554 -7.202616 -27.458102 -1.393611 -3.520533 62.746155 -2.569325 -13.501129 8.201029 -3.563000 -0.000000 -47.289800
19.909477 16.627614 1.910122 127.217959 -86.034287 -100.928612 -7.751655 1.124425 5.775497 -11.516256 -12.776649 -46.011075 -1.831229 0.482932 36.022084 2.879444 9.257906 -19.927090 -2.112400 0.000000 -21.986300 12.645851 -2.220376 0.431407 5.117988 -6.504724 -29.895707 -1.434471 -3.680504 64.417105 -2.596423 -13.732428 5.251008 -3.073900 0.000000 -44.458200
19.661453 16.716347 1.914501 130.630011 -85.948416 -104.421241 -7.878873 1.187654 5.629344 -11.651121 -12.062787 -43.548666 -1.966987 0.221739 33.440018 2.818329 9.093461 -19.722795 -2.080600 0.000000 -22.179200 12.495049 -2.027419 0.572106 5.483006 -5.712427 -32.264497 -1.449524 -3.816753 65.667142 -2.590654 -13.651575 2.636237 -2.554300 0.000000 -41.680400
19.411630 16.801323 1.921250 134.717926 -85.875633 -108.600335 -8.040352 1.233109 5.469647 -11.688848 -11.284827 -41.027844 -2.083234 -0.047419 30.746336 2.738535 8.909134 -19.384492 -2.018900 -0.000000 -22.392400 12.303016 -1.853955 0.733295 5.889976 -4.846114 -34.538419 -1.441706 -3.927762 66.521538 -2.557691 -13.333072 0.444806 -2.075900 0.000000 -39.165200
